<mxfile host="app.diagrams.net" agent="Mozilla/5.0 (X11; Linux x86_64) AppleWebKit/537.36 (KHTML, like Gecko) Chrome/124.0.0.0 Safari/537.36" version="26.1.3">
  <diagram name="Page-1" id="On3VLz4LfndGsiO-KAqP">
    <mxGraphModel dx="2884" dy="690" grid="1" gridSize="10" guides="1" tooltips="1" connect="1" arrows="1" fold="1" page="1" pageScale="1" pageWidth="850" pageHeight="1100" math="0" shadow="0">
      <root>
        <mxCell id="0" />
        <mxCell id="1" parent="0" />
        <mxCell id="eImz94cJeBUGd6sr5bJX-7" value="client (React)" style="shape=umlActor;verticalLabelPosition=bottom;verticalAlign=top;html=1;outlineConnect=0;" vertex="1" parent="1">
          <mxGeometry x="-200" y="275" width="30" height="60" as="geometry" />
        </mxCell>
        <mxCell id="eImz94cJeBUGd6sr5bJX-10" value="Email service&lt;div&gt;&lt;br&gt;&lt;/div&gt;" style="rounded=0;whiteSpace=wrap;html=1;" vertex="1" parent="1">
          <mxGeometry x="500" y="34.24" width="140" height="130" as="geometry" />
        </mxCell>
        <mxCell id="eImz94cJeBUGd6sr5bJX-14" value="" style="group" vertex="1" connectable="0" parent="1">
          <mxGeometry x="500" y="230" width="450" height="230" as="geometry" />
        </mxCell>
        <mxCell id="eImz94cJeBUGd6sr5bJX-1" value="" style="rounded=0;whiteSpace=wrap;html=1;" vertex="1" parent="eImz94cJeBUGd6sr5bJX-14">
          <mxGeometry x="120" y="50" width="270" height="200" as="geometry" />
        </mxCell>
        <mxCell id="eImz94cJeBUGd6sr5bJX-2" value="SQL DB Service" style="text;html=1;align=center;verticalAlign=middle;resizable=0;points=[];autosize=1;strokeColor=none;fillColor=none;" vertex="1" parent="eImz94cJeBUGd6sr5bJX-14">
          <mxGeometry x="90" y="20" width="110" height="30" as="geometry" />
        </mxCell>
        <mxCell id="eImz94cJeBUGd6sr5bJX-41" value="https://dbdiagram.io/d/comment-67d2718f75d75cc844e80da8" style="text;html=1;align=center;verticalAlign=middle;resizable=0;points=[];autosize=1;strokeColor=none;fillColor=none;" vertex="1" parent="eImz94cJeBUGd6sr5bJX-14">
          <mxGeometry x="100" y="130" width="350" height="30" as="geometry" />
        </mxCell>
        <mxCell id="eImz94cJeBUGd6sr5bJX-15" value="handle email" style="rhombus;whiteSpace=wrap;html=1;" vertex="1" parent="1">
          <mxGeometry x="360" y="164.24" width="120" height="70" as="geometry" />
        </mxCell>
        <UserObject label="https://github.com/aymerick/raymond" link="https://github.com/aymerick/raymond" id="eImz94cJeBUGd6sr5bJX-11">
          <mxCell style="text;whiteSpace=wrap;" vertex="1" parent="1">
            <mxGeometry x="-20" y="555.76" width="210" height="40" as="geometry" />
          </mxCell>
        </UserObject>
        <mxCell id="eImz94cJeBUGd6sr5bJX-17" value="" style="endArrow=classic;html=1;rounded=0;entryX=0;entryY=0.75;entryDx=0;entryDy=0;" edge="1" parent="1" source="eImz94cJeBUGd6sr5bJX-15" target="eImz94cJeBUGd6sr5bJX-10">
          <mxGeometry width="50" height="50" relative="1" as="geometry">
            <mxPoint x="160" y="300" as="sourcePoint" />
            <mxPoint x="210" y="250" as="targetPoint" />
          </mxGeometry>
        </mxCell>
        <UserObject label="https://github.com/aymerick/raymond" link="https://github.com/aymerick/raymond" id="eImz94cJeBUGd6sr5bJX-18">
          <mxCell style="text;whiteSpace=wrap;" vertex="1" parent="1">
            <mxGeometry x="-20" y="575.76" width="210" height="30" as="geometry" />
          </mxCell>
        </UserObject>
        <mxCell id="eImz94cJeBUGd6sr5bJX-21" value="" style="endArrow=classic;html=1;rounded=0;entryX=0;entryY=0.25;entryDx=0;entryDy=0;startArrow=block;startFill=1;" edge="1" parent="1" source="eImz94cJeBUGd6sr5bJX-7" target="eImz94cJeBUGd6sr5bJX-12">
          <mxGeometry width="50" height="50" relative="1" as="geometry">
            <mxPoint x="30" y="300" as="sourcePoint" />
            <mxPoint x="80" y="250" as="targetPoint" />
          </mxGeometry>
        </mxCell>
        <mxCell id="eImz94cJeBUGd6sr5bJX-22" value="Restful" style="text;html=1;align=center;verticalAlign=middle;resizable=0;points=[];autosize=1;strokeColor=none;fillColor=none;" vertex="1" parent="1">
          <mxGeometry x="-130" y="290" width="60" height="30" as="geometry" />
        </mxCell>
        <mxCell id="eImz94cJeBUGd6sr5bJX-23" value="STMP" style="text;html=1;align=center;verticalAlign=middle;resizable=0;points=[];autosize=1;strokeColor=none;fillColor=none;" vertex="1" parent="1">
          <mxGeometry x="330" y="150" width="60" height="30" as="geometry" />
        </mxCell>
        <mxCell id="eImz94cJeBUGd6sr5bJX-26" value="Socket" style="text;html=1;align=center;verticalAlign=middle;resizable=0;points=[];autosize=1;strokeColor=none;fillColor=none;" vertex="1" parent="1">
          <mxGeometry x="-100" y="275" width="60" height="30" as="geometry" />
        </mxCell>
        <mxCell id="eImz94cJeBUGd6sr5bJX-27" value="(notify)" style="text;html=1;align=center;verticalAlign=middle;resizable=0;points=[];autosize=1;strokeColor=none;fillColor=none;" vertex="1" parent="1">
          <mxGeometry x="-175" y="360" width="60" height="30" as="geometry" />
        </mxCell>
        <mxCell id="eImz94cJeBUGd6sr5bJX-28" value="" style="group" vertex="1" connectable="0" parent="1">
          <mxGeometry x="10" y="220" width="360" height="275.76" as="geometry" />
        </mxCell>
        <mxCell id="eImz94cJeBUGd6sr5bJX-12" value="" style="rounded=0;whiteSpace=wrap;html=1;" vertex="1" parent="eImz94cJeBUGd6sr5bJX-28">
          <mxGeometry y="42.259910093992644" width="350" height="233.50008990600733" as="geometry" />
        </mxCell>
        <mxCell id="eImz94cJeBUGd6sr5bJX-13" value="Go server" style="text;html=1;align=center;verticalAlign=middle;resizable=0;points=[];autosize=1;strokeColor=none;fillColor=none;" vertex="1" parent="eImz94cJeBUGd6sr5bJX-28">
          <mxGeometry x="36.84210526315789" width="80" height="30" as="geometry" />
        </mxCell>
        <mxCell id="eImz94cJeBUGd6sr5bJX-19" value=".hsb file&amp;nbsp;&lt;br&gt;(email template)" style="rounded=0;whiteSpace=wrap;html=1;" vertex="1" parent="eImz94cJeBUGd6sr5bJX-28">
          <mxGeometry x="230" y="80" width="101.58" height="47.85" as="geometry" />
        </mxCell>
        <mxCell id="eImz94cJeBUGd6sr5bJX-24" value="Queue" style="rounded=0;whiteSpace=wrap;html=1;" vertex="1" parent="eImz94cJeBUGd6sr5bJX-28">
          <mxGeometry x="235" y="180" width="91.58" height="54.63" as="geometry" />
        </mxCell>
        <mxCell id="eImz94cJeBUGd6sr5bJX-30" value="Trigger" style="rhombus;whiteSpace=wrap;html=1;" vertex="1" parent="eImz94cJeBUGd6sr5bJX-28">
          <mxGeometry x="130" y="109.99999999999999" width="80" height="80" as="geometry" />
        </mxCell>
        <mxCell id="eImz94cJeBUGd6sr5bJX-31" value="" style="endArrow=classic;html=1;rounded=0;entryX=0;entryY=0.5;entryDx=0;entryDy=0;exitX=1;exitY=0;exitDx=0;exitDy=0;" edge="1" parent="eImz94cJeBUGd6sr5bJX-28" source="eImz94cJeBUGd6sr5bJX-30" target="eImz94cJeBUGd6sr5bJX-19">
          <mxGeometry width="50" height="50" relative="1" as="geometry">
            <mxPoint x="40" y="210" as="sourcePoint" />
            <mxPoint x="90" y="160" as="targetPoint" />
          </mxGeometry>
        </mxCell>
        <mxCell id="eImz94cJeBUGd6sr5bJX-32" value="" style="endArrow=classic;html=1;rounded=0;entryX=0;entryY=0.5;entryDx=0;entryDy=0;exitX=1;exitY=1;exitDx=0;exitDy=0;" edge="1" parent="eImz94cJeBUGd6sr5bJX-28" source="eImz94cJeBUGd6sr5bJX-30" target="eImz94cJeBUGd6sr5bJX-24">
          <mxGeometry width="50" height="50" relative="1" as="geometry">
            <mxPoint x="40" y="210" as="sourcePoint" />
            <mxPoint x="90" y="160" as="targetPoint" />
          </mxGeometry>
        </mxCell>
        <mxCell id="eImz94cJeBUGd6sr5bJX-119" value="Audit trail of the comment:&amp;nbsp;&lt;span class=&quot;notion-enable-hover&quot; data-token-index=&quot;0&quot; style=&quot;font-weight:600&quot;&gt;lịch sử chỉnh sửa&lt;/span&gt; của comment." style="text;html=1;align=center;verticalAlign=middle;resizable=0;points=[];autosize=1;strokeColor=none;fillColor=none;" vertex="1" parent="eImz94cJeBUGd6sr5bJX-28">
          <mxGeometry x="5" y="245.76" width="350" height="30" as="geometry" />
        </mxCell>
        <mxCell id="eImz94cJeBUGd6sr5bJX-120" value="" style="endArrow=classic;html=1;rounded=0;exitX=0;exitY=1;exitDx=0;exitDy=0;" edge="1" parent="eImz94cJeBUGd6sr5bJX-28" source="eImz94cJeBUGd6sr5bJX-30" target="eImz94cJeBUGd6sr5bJX-119">
          <mxGeometry width="50" height="50" relative="1" as="geometry">
            <mxPoint x="120" y="230" as="sourcePoint" />
            <mxPoint x="170" y="240" as="targetPoint" />
          </mxGeometry>
        </mxCell>
        <mxCell id="eImz94cJeBUGd6sr5bJX-33" value="Resource" style="text;html=1;align=center;verticalAlign=middle;resizable=0;points=[];autosize=1;strokeColor=none;fillColor=none;" vertex="1" parent="1">
          <mxGeometry x="-30" y="525.76" width="70" height="30" as="geometry" />
        </mxCell>
        <mxCell id="eImz94cJeBUGd6sr5bJX-25" value="" style="endArrow=classic;html=1;rounded=0;exitX=0;exitY=0.75;exitDx=0;exitDy=0;entryX=1;entryY=1;entryDx=0;entryDy=0;entryPerimeter=0;" edge="1" parent="1" source="eImz94cJeBUGd6sr5bJX-24" target="eImz94cJeBUGd6sr5bJX-7">
          <mxGeometry width="50" height="50" relative="1" as="geometry">
            <mxPoint x="30" y="430" as="sourcePoint" />
            <mxPoint x="80" y="380" as="targetPoint" />
            <Array as="points">
              <mxPoint x="-60" y="370" />
            </Array>
          </mxGeometry>
        </mxCell>
        <mxCell id="eImz94cJeBUGd6sr5bJX-16" value="" style="endArrow=none;html=1;rounded=0;entryX=0;entryY=1;entryDx=0;entryDy=0;exitX=0.5;exitY=0;exitDx=0;exitDy=0;startFill=0;" edge="1" parent="1" source="eImz94cJeBUGd6sr5bJX-19" target="eImz94cJeBUGd6sr5bJX-15">
          <mxGeometry width="50" height="50" relative="1" as="geometry">
            <mxPoint x="160" y="300" as="sourcePoint" />
            <mxPoint x="210" y="250" as="targetPoint" />
            <Array as="points" />
          </mxGeometry>
        </mxCell>
        <mxCell id="eImz94cJeBUGd6sr5bJX-36" value="" style="endArrow=classic;html=1;rounded=0;exitX=1;exitY=0.5;exitDx=0;exitDy=0;entryX=0.007;entryY=0.542;entryDx=0;entryDy=0;entryPerimeter=0;startArrow=none;startFill=0;" edge="1" parent="1" source="eImz94cJeBUGd6sr5bJX-38" target="eImz94cJeBUGd6sr5bJX-1">
          <mxGeometry width="50" height="50" relative="1" as="geometry">
            <mxPoint x="560" y="360" as="sourcePoint" />
            <mxPoint x="610" y="310" as="targetPoint" />
          </mxGeometry>
        </mxCell>
        <mxCell id="eImz94cJeBUGd6sr5bJX-39" value="" style="endArrow=none;html=1;rounded=0;exitX=1;exitY=0.5;exitDx=0;exitDy=0;entryX=0.007;entryY=0.542;entryDx=0;entryDy=0;entryPerimeter=0;startArrow=classic;startFill=0;" edge="1" parent="1" source="eImz94cJeBUGd6sr5bJX-12" target="eImz94cJeBUGd6sr5bJX-38">
          <mxGeometry width="50" height="50" relative="1" as="geometry">
            <mxPoint x="370" y="389" as="sourcePoint" />
            <mxPoint x="662" y="388" as="targetPoint" />
          </mxGeometry>
        </mxCell>
        <mxCell id="eImz94cJeBUGd6sr5bJX-38" value="CRUD" style="rhombus;whiteSpace=wrap;html=1;" vertex="1" parent="1">
          <mxGeometry x="450" y="349.01" width="80" height="80" as="geometry" />
        </mxCell>
        <mxCell id="eImz94cJeBUGd6sr5bJX-42" value="&lt;font style=&quot;font-size: 14px;&quot;&gt;High Design&lt;/font&gt;" style="text;html=1;align=center;verticalAlign=middle;resizable=0;points=[];autosize=1;strokeColor=none;fillColor=none;" vertex="1" parent="1">
          <mxGeometry x="-180" y="8" width="100" height="30" as="geometry" />
        </mxCell>
        <mxCell id="eImz94cJeBUGd6sr5bJX-43" value="@Name1:id:tableName&amp;nbsp;" style="text;html=1;align=center;verticalAlign=middle;resizable=0;points=[];autosize=1;strokeColor=none;fillColor=none;" vertex="1" parent="1">
          <mxGeometry x="10" y="730" width="150" height="30" as="geometry" />
        </mxCell>
        <mxCell id="eImz94cJeBUGd6sr5bJX-45" value="@Name2:id:tableName" style="text;html=1;align=center;verticalAlign=middle;resizable=0;points=[];autosize=1;strokeColor=none;fillColor=none;" vertex="1" parent="1">
          <mxGeometry x="10" y="760" width="150" height="30" as="geometry" />
        </mxCell>
        <mxCell id="eImz94cJeBUGd6sr5bJX-46" value="@Name3:id:tableName&amp;nbsp;" style="text;html=1;align=center;verticalAlign=middle;resizable=0;points=[];autosize=1;strokeColor=none;fillColor=none;" vertex="1" parent="1">
          <mxGeometry x="10" y="790" width="150" height="30" as="geometry" />
        </mxCell>
        <mxCell id="eImz94cJeBUGd6sr5bJX-48" value="content: &quot;I mention @id_1 and @id_2 focus on @id_3&quot;," style="text;html=1;align=center;verticalAlign=middle;whiteSpace=wrap;rounded=0;" vertex="1" parent="1">
          <mxGeometry x="370" y="635.76" width="140" height="30" as="geometry" />
        </mxCell>
        <mxCell id="eImz94cJeBUGd6sr5bJX-53" value="" style="group" vertex="1" connectable="0" parent="1">
          <mxGeometry x="-530" y="762" width="360" height="58" as="geometry" />
        </mxCell>
        <mxCell id="eImz94cJeBUGd6sr5bJX-49" value="@Name1:id:tableName&amp;nbsp;" style="text;html=1;align=center;verticalAlign=middle;resizable=0;points=[];autosize=1;strokeColor=none;fillColor=none;" vertex="1" parent="eImz94cJeBUGd6sr5bJX-53">
          <mxGeometry x="60" width="150" height="30" as="geometry" />
        </mxCell>
        <mxCell id="eImz94cJeBUGd6sr5bJX-50" value="I mention&amp;nbsp;" style="text;html=1;align=center;verticalAlign=middle;resizable=0;points=[];autosize=1;strokeColor=none;fillColor=none;" vertex="1" parent="eImz94cJeBUGd6sr5bJX-53">
          <mxGeometry width="80" height="30" as="geometry" />
        </mxCell>
        <mxCell id="eImz94cJeBUGd6sr5bJX-51" value="and @Name2:id:tableName" style="text;html=1;align=center;verticalAlign=middle;resizable=0;points=[];autosize=1;strokeColor=none;fillColor=none;" vertex="1" parent="eImz94cJeBUGd6sr5bJX-53">
          <mxGeometry x="190" width="170" height="30" as="geometry" />
        </mxCell>
        <mxCell id="eImz94cJeBUGd6sr5bJX-52" value="focus on @Name3:id:tableName" style="text;html=1;align=center;verticalAlign=middle;resizable=0;points=[];autosize=1;strokeColor=none;fillColor=none;" vertex="1" parent="eImz94cJeBUGd6sr5bJX-53">
          <mxGeometry y="28" width="200" height="30" as="geometry" />
        </mxCell>
        <mxCell id="eImz94cJeBUGd6sr5bJX-54" value="" style="endArrow=classic;html=1;rounded=0;entryX=-0.015;entryY=0.449;entryDx=0;entryDy=0;entryPerimeter=0;" edge="1" parent="1" target="eImz94cJeBUGd6sr5bJX-45">
          <mxGeometry width="50" height="50" relative="1" as="geometry">
            <mxPoint x="-170" y="773" as="sourcePoint" />
            <mxPoint x="-160" y="780" as="targetPoint" />
          </mxGeometry>
        </mxCell>
        <mxCell id="eImz94cJeBUGd6sr5bJX-55" value="regex" style="text;html=1;align=center;verticalAlign=middle;resizable=0;points=[];autosize=1;strokeColor=none;fillColor=none;" vertex="1" parent="1">
          <mxGeometry x="-115" y="738" width="50" height="30" as="geometry" />
        </mxCell>
        <mxCell id="eImz94cJeBUGd6sr5bJX-56" value="" style="endArrow=classic;html=1;rounded=0;" edge="1" parent="1">
          <mxGeometry width="50" height="50" relative="1" as="geometry">
            <mxPoint x="170" y="770" as="sourcePoint" />
            <mxPoint x="330" y="770" as="targetPoint" />
          </mxGeometry>
        </mxCell>
        <mxCell id="eImz94cJeBUGd6sr5bJX-57" value="response" style="text;html=1;align=center;verticalAlign=middle;resizable=0;points=[];autosize=1;strokeColor=none;fillColor=none;" vertex="1" parent="1">
          <mxGeometry x="210" y="738" width="70" height="30" as="geometry" />
        </mxCell>
        <mxCell id="eImz94cJeBUGd6sr5bJX-58" value="&lt;div&gt;mentions: [&lt;/div&gt;&lt;div&gt;&lt;span style=&quot;white-space: pre;&quot;&gt;&#x9;&lt;/span&gt;{&lt;br&gt;&lt;/div&gt;&lt;div&gt;&lt;span style=&quot;white-space: pre;&quot;&gt;&#x9;&lt;/span&gt;&lt;span style=&quot;white-space: pre;&quot;&gt;&#x9;&lt;span style=&quot;white-space: pre;&quot;&gt;&#x9;&lt;/span&gt;&lt;span style=&quot;white-space: pre;&quot;&gt;&#x9;&lt;/span&gt;&lt;span style=&quot;white-space: pre;&quot;&gt;&#x9;&lt;/span&gt;&lt;span style=&quot;white-space: pre;&quot;&gt;&#x9;&lt;/span&gt;&lt;/span&gt;id: 1 //mention_id,&lt;/div&gt;&lt;div&gt;&lt;span style=&quot;white-space: pre;&quot;&gt;&#x9;&lt;/span&gt;&lt;span style=&quot;white-space: pre;&quot;&gt;&#x9;&lt;/span&gt;&lt;span style=&quot;white-space: pre;&quot;&gt;&#x9;&lt;/span&gt;&lt;span style=&quot;white-space: pre;&quot;&gt;&#x9;&lt;/span&gt;&lt;span style=&quot;white-space: pre;&quot;&gt;&#x9;&lt;span style=&quot;white-space: pre;&quot;&gt;&#x9;&lt;/span&gt;&lt;/span&gt;comment_id: 2,&lt;/div&gt;&lt;div&gt;&lt;span style=&quot;white-space: pre;&quot;&gt;&#x9;&lt;span style=&quot;white-space: pre;&quot;&gt;&#x9;&lt;/span&gt;&lt;span style=&quot;white-space: pre;&quot;&gt;&#x9;&lt;span style=&quot;white-space: pre;&quot;&gt;&#x9;&lt;/span&gt;&lt;span style=&quot;white-space: pre;&quot;&gt;&#x9;&lt;/span&gt;&lt;span style=&quot;white-space: pre;&quot;&gt;&#x9;&lt;/span&gt;&lt;/span&gt;m&lt;/span&gt;ention_name: yyy,&lt;br&gt;&lt;/div&gt;&lt;div&gt;&lt;span style=&quot;white-space: pre;&quot;&gt;&#x9;&lt;/span&gt;&lt;span style=&quot;white-space: pre;&quot;&gt;&#x9;&lt;/span&gt;&lt;span style=&quot;white-space: pre;&quot;&gt;&#x9;&lt;/span&gt;&lt;span style=&quot;white-space: pre;&quot;&gt;&#x9;&lt;/span&gt;&lt;span style=&quot;white-space: pre;&quot;&gt;&#x9;&lt;/span&gt;&lt;span style=&quot;white-space: pre;&quot;&gt;&#x9;&lt;/span&gt;table_name: xxx,&lt;/div&gt;&lt;div&gt;&lt;span style=&quot;white-space: pre;&quot;&gt;&#x9;&lt;/span&gt;&lt;span style=&quot;white-space: pre;&quot;&gt;&#x9;&lt;/span&gt;&lt;span style=&quot;white-space: pre;&quot;&gt;&#x9;&lt;/span&gt;&lt;span style=&quot;white-space: pre;&quot;&gt;&#x9;&lt;/span&gt;&lt;span style=&quot;white-space: pre;&quot;&gt;&#x9;&lt;/span&gt;object_id: 3&lt;/div&gt;&lt;div&gt;&lt;br&gt;&lt;/div&gt;&lt;div&gt;&lt;span style=&quot;white-space: pre;&quot;&gt;&#x9;&lt;/span&gt;},&lt;br&gt;&lt;/div&gt;&lt;div&gt;...&lt;/div&gt;&lt;div&gt;]&lt;/div&gt;" style="text;html=1;align=center;verticalAlign=middle;resizable=0;points=[];autosize=1;strokeColor=none;fillColor=none;" vertex="1" parent="1">
          <mxGeometry x="250" y="680" width="290" height="170" as="geometry" />
        </mxCell>
        <mxCell id="eImz94cJeBUGd6sr5bJX-59" value="&lt;span style=&quot;font-size: 14px;&quot;&gt;Flow save comment for multi object system&amp;nbsp;&lt;/span&gt;" style="text;html=1;align=center;verticalAlign=middle;resizable=0;points=[];autosize=1;strokeColor=none;fillColor=none;" vertex="1" parent="1">
          <mxGeometry x="-540" y="720" width="300" height="30" as="geometry" />
        </mxCell>
        <mxCell id="eImz94cJeBUGd6sr5bJX-61" value="&lt;div&gt;&lt;br&gt;&lt;/div&gt;" style="text;html=1;align=center;verticalAlign=middle;whiteSpace=wrap;rounded=0;" vertex="1" parent="1">
          <mxGeometry x="-640" y="970" width="180" height="30" as="geometry" />
        </mxCell>
        <mxCell id="eImz94cJeBUGd6sr5bJX-64" value="" style="group" vertex="1" connectable="0" parent="1">
          <mxGeometry x="-530" y="762" width="360" height="58" as="geometry" />
        </mxCell>
        <mxCell id="eImz94cJeBUGd6sr5bJX-65" value="@Name1:id:tableName&amp;nbsp;" style="text;html=1;align=center;verticalAlign=middle;resizable=0;points=[];autosize=1;strokeColor=none;fillColor=none;" vertex="1" parent="eImz94cJeBUGd6sr5bJX-64">
          <mxGeometry x="60" width="150" height="30" as="geometry" />
        </mxCell>
        <mxCell id="eImz94cJeBUGd6sr5bJX-66" value="I mention&amp;nbsp;" style="text;html=1;align=center;verticalAlign=middle;resizable=0;points=[];autosize=1;strokeColor=none;fillColor=none;" vertex="1" parent="eImz94cJeBUGd6sr5bJX-64">
          <mxGeometry width="80" height="30" as="geometry" />
        </mxCell>
        <mxCell id="eImz94cJeBUGd6sr5bJX-67" value="and @Name2:id:tableName" style="text;html=1;align=center;verticalAlign=middle;resizable=0;points=[];autosize=1;strokeColor=none;fillColor=none;" vertex="1" parent="eImz94cJeBUGd6sr5bJX-64">
          <mxGeometry x="190" width="170" height="30" as="geometry" />
        </mxCell>
        <mxCell id="eImz94cJeBUGd6sr5bJX-68" value="focus on @Name3:id:tableName" style="text;html=1;align=center;verticalAlign=middle;resizable=0;points=[];autosize=1;strokeColor=none;fillColor=none;" vertex="1" parent="eImz94cJeBUGd6sr5bJX-64">
          <mxGeometry y="28" width="200" height="30" as="geometry" />
        </mxCell>
        <mxCell id="eImz94cJeBUGd6sr5bJX-79" value="" style="shape=table;startSize=0;container=1;collapsible=0;childLayout=tableLayout;fontSize=16;" vertex="1" parent="1">
          <mxGeometry x="-830" y="1020" width="1690" height="220" as="geometry" />
        </mxCell>
        <mxCell id="eImz94cJeBUGd6sr5bJX-80" value="" style="shape=tableRow;horizontal=0;startSize=0;swimlaneHead=0;swimlaneBody=0;strokeColor=inherit;top=0;left=0;bottom=0;right=0;collapsible=0;dropTarget=0;fillColor=none;points=[[0,0.5],[1,0.5]];portConstraint=eastwest;fontSize=16;" vertex="1" parent="eImz94cJeBUGd6sr5bJX-79">
          <mxGeometry width="1690" height="73" as="geometry" />
        </mxCell>
        <mxCell id="eImz94cJeBUGd6sr5bJX-81" value="Worst case&amp;nbsp;" style="shape=partialRectangle;html=1;whiteSpace=wrap;connectable=0;strokeColor=inherit;overflow=hidden;fillColor=none;top=0;left=0;bottom=0;right=0;pointerEvents=1;fontSize=16;" vertex="1" parent="eImz94cJeBUGd6sr5bJX-80">
          <mxGeometry width="562" height="73" as="geometry">
            <mxRectangle width="562" height="73" as="alternateBounds" />
          </mxGeometry>
        </mxCell>
        <mxCell id="eImz94cJeBUGd6sr5bJX-82" value="Example" style="shape=partialRectangle;html=1;whiteSpace=wrap;connectable=0;strokeColor=inherit;overflow=hidden;fillColor=none;top=0;left=0;bottom=0;right=0;pointerEvents=1;fontSize=16;" vertex="1" parent="eImz94cJeBUGd6sr5bJX-80">
          <mxGeometry x="562" width="566" height="73" as="geometry">
            <mxRectangle width="566" height="73" as="alternateBounds" />
          </mxGeometry>
        </mxCell>
        <mxCell id="eImz94cJeBUGd6sr5bJX-83" value="solution" style="shape=partialRectangle;html=1;whiteSpace=wrap;connectable=0;strokeColor=inherit;overflow=hidden;fillColor=none;top=0;left=0;bottom=0;right=0;pointerEvents=1;fontSize=16;" vertex="1" parent="eImz94cJeBUGd6sr5bJX-80">
          <mxGeometry x="1128" width="562" height="73" as="geometry">
            <mxRectangle width="562" height="73" as="alternateBounds" />
          </mxGeometry>
        </mxCell>
        <mxCell id="eImz94cJeBUGd6sr5bJX-84" value="" style="shape=tableRow;horizontal=0;startSize=0;swimlaneHead=0;swimlaneBody=0;strokeColor=inherit;top=0;left=0;bottom=0;right=0;collapsible=0;dropTarget=0;fillColor=none;points=[[0,0.5],[1,0.5]];portConstraint=eastwest;fontSize=16;" vertex="1" parent="eImz94cJeBUGd6sr5bJX-79">
          <mxGeometry y="73" width="1690" height="74" as="geometry" />
        </mxCell>
        <mxCell id="eImz94cJeBUGd6sr5bJX-85" value="Worst case: Confuse mention&lt;div&gt;* If user @1xxxx (not be include in mentions order, that is not mention)&lt;/div&gt;&lt;div&gt;&lt;br style=&quot;font-size: 12px;&quot;&gt;&lt;/div&gt;" style="shape=partialRectangle;html=1;whiteSpace=wrap;connectable=0;strokeColor=inherit;overflow=hidden;fillColor=none;top=0;left=0;bottom=0;right=0;pointerEvents=1;fontSize=16;" vertex="1" parent="eImz94cJeBUGd6sr5bJX-84">
          <mxGeometry width="562" height="74" as="geometry">
            <mxRectangle width="562" height="74" as="alternateBounds" />
          </mxGeometry>
        </mxCell>
        <mxCell id="eImz94cJeBUGd6sr5bJX-86" value="" style="shape=partialRectangle;html=1;whiteSpace=wrap;connectable=0;strokeColor=inherit;overflow=hidden;fillColor=none;top=0;left=0;bottom=0;right=0;pointerEvents=1;fontSize=16;" vertex="1" parent="eImz94cJeBUGd6sr5bJX-84">
          <mxGeometry x="562" width="566" height="74" as="geometry">
            <mxRectangle width="566" height="74" as="alternateBounds" />
          </mxGeometry>
        </mxCell>
        <mxCell id="eImz94cJeBUGd6sr5bJX-87" value="use id instead of order" style="shape=partialRectangle;html=1;whiteSpace=wrap;connectable=0;strokeColor=inherit;overflow=hidden;fillColor=none;top=0;left=0;bottom=0;right=0;pointerEvents=1;fontSize=16;" vertex="1" parent="eImz94cJeBUGd6sr5bJX-84">
          <mxGeometry x="1128" width="562" height="74" as="geometry">
            <mxRectangle width="562" height="74" as="alternateBounds" />
          </mxGeometry>
        </mxCell>
        <mxCell id="eImz94cJeBUGd6sr5bJX-88" value="" style="shape=tableRow;horizontal=0;startSize=0;swimlaneHead=0;swimlaneBody=0;strokeColor=inherit;top=0;left=0;bottom=0;right=0;collapsible=0;dropTarget=0;fillColor=none;points=[[0,0.5],[1,0.5]];portConstraint=eastwest;fontSize=16;" vertex="1" parent="eImz94cJeBUGd6sr5bJX-79">
          <mxGeometry y="147" width="1690" height="73" as="geometry" />
        </mxCell>
        <mxCell id="eImz94cJeBUGd6sr5bJX-89" value="Update Order of mention" style="shape=partialRectangle;html=1;whiteSpace=wrap;connectable=0;strokeColor=inherit;overflow=hidden;fillColor=none;top=0;left=0;bottom=0;right=0;pointerEvents=1;fontSize=16;" vertex="1" parent="eImz94cJeBUGd6sr5bJX-88">
          <mxGeometry width="562" height="73" as="geometry">
            <mxRectangle width="562" height="73" as="alternateBounds" />
          </mxGeometry>
        </mxCell>
        <mxCell id="eImz94cJeBUGd6sr5bJX-90" value="Delete mention/ Change Comment ..." style="shape=partialRectangle;html=1;whiteSpace=wrap;connectable=0;strokeColor=inherit;overflow=hidden;fillColor=none;top=0;left=0;bottom=0;right=0;pointerEvents=1;fontSize=16;" vertex="1" parent="eImz94cJeBUGd6sr5bJX-88">
          <mxGeometry x="562" width="566" height="73" as="geometry">
            <mxRectangle width="566" height="73" as="alternateBounds" />
          </mxGeometry>
        </mxCell>
        <mxCell id="eImz94cJeBUGd6sr5bJX-91" value="use id instead of order, catch mention by id" style="shape=partialRectangle;html=1;whiteSpace=wrap;connectable=0;strokeColor=inherit;overflow=hidden;fillColor=none;top=0;left=0;bottom=0;right=0;pointerEvents=1;fontSize=16;" vertex="1" parent="eImz94cJeBUGd6sr5bJX-88">
          <mxGeometry x="1128" width="562" height="73" as="geometry">
            <mxRectangle width="562" height="73" as="alternateBounds" />
          </mxGeometry>
        </mxCell>
        <mxCell id="eImz94cJeBUGd6sr5bJX-69" value="" style="group" vertex="1" connectable="0" parent="1">
          <mxGeometry x="-250" y="1100" width="370" height="58" as="geometry" />
        </mxCell>
        <mxCell id="eImz94cJeBUGd6sr5bJX-70" value="@Name1:id:tableName&amp;nbsp;" style="text;html=1;align=center;verticalAlign=middle;resizable=0;points=[];autosize=1;strokeColor=none;fillColor=none;" vertex="1" parent="eImz94cJeBUGd6sr5bJX-69">
          <mxGeometry x="61.66666666666667" width="150" height="30" as="geometry" />
        </mxCell>
        <mxCell id="eImz94cJeBUGd6sr5bJX-71" value="I mention @1&amp;nbsp; &amp;nbsp;&amp;nbsp;" style="text;html=1;align=center;verticalAlign=middle;resizable=0;points=[];autosize=1;strokeColor=none;fillColor=none;" vertex="1" parent="eImz94cJeBUGd6sr5bJX-69">
          <mxGeometry x="-15.416666666666668" width="110" height="30" as="geometry" />
        </mxCell>
        <mxCell id="eImz94cJeBUGd6sr5bJX-72" value="and @Name2:id:tableName" style="text;html=1;align=center;verticalAlign=middle;resizable=0;points=[];autosize=1;strokeColor=none;fillColor=none;" vertex="1" parent="eImz94cJeBUGd6sr5bJX-69">
          <mxGeometry x="195.27777777777777" width="170" height="30" as="geometry" />
        </mxCell>
        <mxCell id="eImz94cJeBUGd6sr5bJX-73" value="focus on @Name3:id:tableName" style="text;html=1;align=center;verticalAlign=middle;resizable=0;points=[];autosize=1;strokeColor=none;fillColor=none;" vertex="1" parent="eImz94cJeBUGd6sr5bJX-69">
          <mxGeometry y="28" width="200" height="30" as="geometry" />
        </mxCell>
        <mxCell id="eImz94cJeBUGd6sr5bJX-92" value="CREATE" style="text;html=1;align=center;verticalAlign=middle;resizable=0;points=[];autosize=1;strokeColor=none;fillColor=none;" vertex="1" parent="1">
          <mxGeometry x="-630" y="776" width="70" height="30" as="geometry" />
        </mxCell>
        <mxCell id="eImz94cJeBUGd6sr5bJX-93" value="UPDATE" style="text;html=1;align=center;verticalAlign=middle;resizable=0;points=[];autosize=1;strokeColor=none;fillColor=none;" vertex="1" parent="1">
          <mxGeometry x="-690" y="875" width="70" height="30" as="geometry" />
        </mxCell>
        <mxCell id="eImz94cJeBUGd6sr5bJX-94" value="" style="endArrow=classic;html=1;rounded=0;entryX=0.5;entryY=1;entryDx=0;entryDy=0;exitX=0.994;exitY=0;exitDx=0;exitDy=0;exitPerimeter=0;" edge="1" parent="1" source="eImz94cJeBUGd6sr5bJX-58" target="eImz94cJeBUGd6sr5bJX-1">
          <mxGeometry width="50" height="50" relative="1" as="geometry">
            <mxPoint x="370" y="730" as="sourcePoint" />
            <mxPoint x="420" y="680" as="targetPoint" />
          </mxGeometry>
        </mxCell>
        <mxCell id="eImz94cJeBUGd6sr5bJX-95" value="Save" style="text;html=1;align=center;verticalAlign=middle;resizable=0;points=[];autosize=1;strokeColor=none;fillColor=none;" vertex="1" parent="1">
          <mxGeometry x="610" y="605.76" width="50" height="30" as="geometry" />
        </mxCell>
        <mxCell id="eImz94cJeBUGd6sr5bJX-96" value="" style="group" vertex="1" connectable="0" parent="1">
          <mxGeometry x="-600" y="860" width="680" height="125" as="geometry" />
        </mxCell>
        <mxCell id="eImz94cJeBUGd6sr5bJX-98" value="I mention&amp;nbsp;&amp;nbsp;" style="text;html=1;align=center;verticalAlign=middle;resizable=0;points=[];autosize=1;strokeColor=none;fillColor=none;" vertex="1" parent="eImz94cJeBUGd6sr5bJX-96">
          <mxGeometry width="80" height="30" as="geometry" />
        </mxCell>
        <mxCell id="eImz94cJeBUGd6sr5bJX-100" value="focus on @id_3 and @Name4:id:tableName" style="text;html=1;align=center;verticalAlign=middle;resizable=0;points=[];autosize=1;strokeColor=none;fillColor=none;" vertex="1" parent="eImz94cJeBUGd6sr5bJX-96">
          <mxGeometry x="-34.99611111111112" y="30" width="260" height="30" as="geometry" />
        </mxCell>
        <mxCell id="eImz94cJeBUGd6sr5bJX-97" value="@id_1" style="text;html=1;align=center;verticalAlign=middle;resizable=0;points=[];autosize=1;strokeColor=none;fillColor=none;" vertex="1" parent="eImz94cJeBUGd6sr5bJX-96">
          <mxGeometry x="60" width="60" height="30" as="geometry" />
        </mxCell>
        <mxCell id="eImz94cJeBUGd6sr5bJX-116" value="" style="rounded=0;whiteSpace=wrap;html=1;fillColor=#f8cecc;strokeColor=#b85450;" vertex="1" parent="eImz94cJeBUGd6sr5bJX-96">
          <mxGeometry x="190" y="-35" width="440" height="160" as="geometry" />
        </mxCell>
        <mxCell id="eImz94cJeBUGd6sr5bJX-101" value="" style="endArrow=classic;html=1;rounded=0;exitX=0.995;exitY=0.07;exitDx=0;exitDy=0;exitPerimeter=0;" edge="1" parent="1" source="eImz94cJeBUGd6sr5bJX-100">
          <mxGeometry width="50" height="50" relative="1" as="geometry">
            <mxPoint x="-260" y="830" as="sourcePoint" />
            <mxPoint y="892" as="targetPoint" />
          </mxGeometry>
        </mxCell>
        <mxCell id="eImz94cJeBUGd6sr5bJX-106" value="regex" style="text;html=1;align=center;verticalAlign=middle;resizable=0;points=[];autosize=1;strokeColor=none;fillColor=none;" vertex="1" parent="1">
          <mxGeometry x="-295" y="858" width="50" height="30" as="geometry" />
        </mxCell>
        <mxCell id="eImz94cJeBUGd6sr5bJX-107" value="ids" style="text;html=1;align=center;verticalAlign=middle;resizable=0;points=[];autosize=1;strokeColor=none;fillColor=none;" vertex="1" parent="1">
          <mxGeometry y="868" width="40" height="30" as="geometry" />
        </mxCell>
        <mxCell id="eImz94cJeBUGd6sr5bJX-108" value="new mention" style="text;html=1;align=center;verticalAlign=middle;resizable=0;points=[];autosize=1;strokeColor=none;fillColor=none;" vertex="1" parent="1">
          <mxGeometry y="900" width="90" height="30" as="geometry" />
        </mxCell>
        <mxCell id="eImz94cJeBUGd6sr5bJX-110" value="" style="endArrow=classic;html=1;rounded=0;entryX=0;entryY=0.667;entryDx=0;entryDy=0;entryPerimeter=0;" edge="1" parent="1" target="eImz94cJeBUGd6sr5bJX-111">
          <mxGeometry width="50" height="50" relative="1" as="geometry">
            <mxPoint x="580" y="810" as="sourcePoint" />
            <mxPoint x="760" y="859" as="targetPoint" />
          </mxGeometry>
        </mxCell>
        <mxCell id="eImz94cJeBUGd6sr5bJX-111" value="GET" style="text;html=1;align=center;verticalAlign=middle;resizable=0;points=[];autosize=1;strokeColor=none;fillColor=none;" vertex="1" parent="1">
          <mxGeometry x="830" y="790" width="50" height="30" as="geometry" />
        </mxCell>
        <mxCell id="eImz94cJeBUGd6sr5bJX-112" value="" style="endArrow=classic;html=1;rounded=0;" edge="1" parent="1">
          <mxGeometry width="50" height="50" relative="1" as="geometry">
            <mxPoint x="80" y="890" as="sourcePoint" />
            <mxPoint x="290" y="890" as="targetPoint" />
          </mxGeometry>
        </mxCell>
        <mxCell id="eImz94cJeBUGd6sr5bJX-113" value="content: &quot;I mention @id_1 and @id_3 focus on @id_4&quot;," style="text;html=1;align=center;verticalAlign=middle;whiteSpace=wrap;rounded=0;" vertex="1" parent="1">
          <mxGeometry x="340" y="870" width="140" height="30" as="geometry" />
        </mxCell>
        <mxCell id="eImz94cJeBUGd6sr5bJX-115" value="&lt;div&gt;mentions: [&lt;/div&gt;&lt;div&gt;&lt;span style=&quot;white-space: pre;&quot;&gt;&#x9;&lt;/span&gt;{&lt;br&gt;&lt;/div&gt;&lt;div&gt;&lt;span style=&quot;white-space: pre;&quot;&gt;&#x9;&lt;/span&gt;&lt;span style=&quot;white-space: pre;&quot;&gt;&#x9;&lt;span style=&quot;white-space: pre;&quot;&gt;&#x9;&lt;/span&gt;&lt;span style=&quot;white-space: pre;&quot;&gt;&#x9;&lt;/span&gt;&lt;span style=&quot;white-space: pre;&quot;&gt;&#x9;&lt;/span&gt;&lt;span style=&quot;white-space: pre;&quot;&gt;&#x9;&lt;/span&gt;&lt;/span&gt;id: 1 //mention_id,&lt;/div&gt;&lt;div&gt;&lt;span style=&quot;white-space: pre;&quot;&gt;&#x9;&lt;/span&gt;&lt;span style=&quot;white-space: pre;&quot;&gt;&#x9;&lt;/span&gt;&lt;span style=&quot;white-space: pre;&quot;&gt;&#x9;&lt;/span&gt;&lt;span style=&quot;white-space: pre;&quot;&gt;&#x9;&lt;/span&gt;&lt;span style=&quot;white-space: pre;&quot;&gt;&#x9;&lt;span style=&quot;white-space: pre;&quot;&gt;&#x9;&lt;/span&gt;&lt;/span&gt;comment_id: 2,&lt;/div&gt;&lt;div&gt;&lt;span style=&quot;white-space: pre;&quot;&gt;&#x9;&lt;span style=&quot;white-space: pre;&quot;&gt;&#x9;&lt;/span&gt;&lt;span style=&quot;white-space: pre;&quot;&gt;&#x9;&lt;span style=&quot;white-space: pre;&quot;&gt;&#x9;&lt;/span&gt;&lt;span style=&quot;white-space: pre;&quot;&gt;&#x9;&lt;/span&gt;&lt;span style=&quot;white-space: pre;&quot;&gt;&#x9;&lt;/span&gt;&lt;/span&gt;m&lt;/span&gt;ention_name: yyy,&lt;br&gt;&lt;/div&gt;&lt;div&gt;&lt;span style=&quot;white-space: pre;&quot;&gt;&#x9;&lt;/span&gt;&lt;span style=&quot;white-space: pre;&quot;&gt;&#x9;&lt;/span&gt;&lt;span style=&quot;white-space: pre;&quot;&gt;&#x9;&lt;/span&gt;&lt;span style=&quot;white-space: pre;&quot;&gt;&#x9;&lt;/span&gt;&lt;span style=&quot;white-space: pre;&quot;&gt;&#x9;&lt;/span&gt;&lt;span style=&quot;white-space: pre;&quot;&gt;&#x9;&lt;/span&gt;table_name: xxx,&lt;/div&gt;&lt;div&gt;&lt;span style=&quot;white-space: pre;&quot;&gt;&#x9;&lt;/span&gt;&lt;span style=&quot;white-space: pre;&quot;&gt;&#x9;&lt;/span&gt;&lt;span style=&quot;white-space: pre;&quot;&gt;&#x9;&lt;/span&gt;&lt;span style=&quot;white-space: pre;&quot;&gt;&#x9;&lt;/span&gt;&lt;span style=&quot;white-space: pre;&quot;&gt;&#x9;&lt;/span&gt;object_id: 3&lt;/div&gt;&lt;div&gt;&lt;br&gt;&lt;/div&gt;&lt;div&gt;&lt;span style=&quot;white-space: pre;&quot;&gt;&#x9;&lt;/span&gt;},&lt;br&gt;&lt;/div&gt;&lt;div&gt;...&lt;/div&gt;&lt;div&gt;]&lt;/div&gt;" style="text;html=1;align=center;verticalAlign=middle;resizable=0;points=[];autosize=1;strokeColor=none;fillColor=none;" vertex="1" parent="1">
          <mxGeometry x="230" y="910" width="290" height="170" as="geometry" />
        </mxCell>
        <mxCell id="eImz94cJeBUGd6sr5bJX-117" value="Permission:&lt;div&gt;Just created by can edit comment&lt;/div&gt;&lt;div&gt;Comment can be reply by everyone CAN SEE this comment&lt;/div&gt;" style="text;html=1;align=left;verticalAlign=middle;resizable=0;points=[];autosize=1;strokeColor=none;fillColor=none;" vertex="1" parent="1">
          <mxGeometry x="-860" y="1270" width="340" height="60" as="geometry" />
        </mxCell>
        <mxCell id="eImz94cJeBUGd6sr5bJX-118" value="Bussiness Rule can be adapt&amp;nbsp;" style="text;html=1;align=center;verticalAlign=middle;resizable=0;points=[];autosize=1;strokeColor=none;fillColor=none;" vertex="1" parent="1">
          <mxGeometry x="-870" y="1408" width="180" height="30" as="geometry" />
        </mxCell>
      </root>
    </mxGraphModel>
  </diagram>
</mxfile>
